solid OpenSCAD_Model
  facet normal 0.573576 0.819152 -0
    outer loop
      vertex 6.42788 7.66044 -2.5
      vertex 5 8.66025 -1.5
      vertex 6.42788 7.66044 -1.5
    endloop
  endfacet
  facet normal 0.573576 0.819152 0
    outer loop
      vertex 5 8.66025 -1.5
      vertex 6.42788 7.66044 -2.5
      vertex 5 8.66025 -2.5
    endloop
  endfacet
  facet normal -0.258819 -0.965926 0
    outer loop
      vertex -3.4202 -9.39693 -2.5
      vertex -1.73648 -9.84808 -1.5
      vertex -3.4202 -9.39693 -1.5
    endloop
  endfacet
  facet normal -0.258819 -0.965926 -0
    outer loop
      vertex -1.73648 -9.84808 -1.5
      vertex -3.4202 -9.39693 -2.5
      vertex -1.73648 -9.84808 -2.5
    endloop
  endfacet
  facet normal -0.258819 0.965926 0
    outer loop
      vertex -1.73648 9.84808 -2.5
      vertex -3.4202 9.39693 -1.5
      vertex -1.73648 9.84808 -1.5
    endloop
  endfacet
  facet normal -0.258819 0.965926 0
    outer loop
      vertex -3.4202 9.39693 -1.5
      vertex -1.73648 9.84808 -2.5
      vertex -3.4202 9.39693 -2.5
    endloop
  endfacet
  facet normal -0.906308 0.422618 0
    outer loop
      vertex -9.39693 3.4202 -2.5
      vertex -8.66025 5 -1.5
      vertex -8.66025 5 -2.5
    endloop
  endfacet
  facet normal -0.906308 0.422618 0
    outer loop
      vertex -8.66025 5 -1.5
      vertex -9.39693 3.4202 -2.5
      vertex -9.39693 3.4202 -1.5
    endloop
  endfacet
  facet normal -0.422618 -0.906308 0
    outer loop
      vertex -5 -8.66025 -2.5
      vertex -3.4202 -9.39693 -1.5
      vertex -5 -8.66025 -1.5
    endloop
  endfacet
  facet normal -0.422618 -0.906308 -0
    outer loop
      vertex -3.4202 -9.39693 -1.5
      vertex -5 -8.66025 -2.5
      vertex -3.4202 -9.39693 -2.5
    endloop
  endfacet
  facet normal 0.965926 0.258819 0
    outer loop
      vertex 9.84808 1.73648 -1.5
      vertex 9.39693 3.4202 -2.5
      vertex 9.39693 3.4202 -1.5
    endloop
  endfacet
  facet normal 0.965926 0.258819 0
    outer loop
      vertex 9.39693 3.4202 -2.5
      vertex 9.84808 1.73648 -1.5
      vertex 9.84808 1.73648 -2.5
    endloop
  endfacet
  facet normal 0.906308 0.422619 0
    outer loop
      vertex 9.39693 3.4202 -1.5
      vertex 8.66025 5 -2.5
      vertex 8.66025 5 -1.5
    endloop
  endfacet
  facet normal 0.906308 0.422619 0
    outer loop
      vertex 8.66025 5 -2.5
      vertex 9.39693 3.4202 -1.5
      vertex 9.39693 3.4202 -2.5
    endloop
  endfacet
  facet normal 0.819152 0.573576 0
    outer loop
      vertex 8.66025 5 -1.5
      vertex 7.66044 6.42788 -2.5
      vertex 7.66044 6.42788 -1.5
    endloop
  endfacet
  facet normal 0.819152 0.573576 0
    outer loop
      vertex 7.66044 6.42788 -2.5
      vertex 8.66025 5 -1.5
      vertex 8.66025 5 -2.5
    endloop
  endfacet
  facet normal 0.707107 0.707107 0
    outer loop
      vertex 7.66044 6.42788 -1.5
      vertex 6.42788 7.66044 -2.5
      vertex 6.42788 7.66044 -1.5
    endloop
  endfacet
  facet normal 0.707107 0.707107 0
    outer loop
      vertex 6.42788 7.66044 -2.5
      vertex 7.66044 6.42788 -1.5
      vertex 7.66044 6.42788 -2.5
    endloop
  endfacet
  facet normal 0.422618 0.906308 -0
    outer loop
      vertex 5 8.66025 -2.5
      vertex 3.4202 9.39693 -1.5
      vertex 5 8.66025 -1.5
    endloop
  endfacet
  facet normal 0.422618 0.906308 0
    outer loop
      vertex 3.4202 9.39693 -1.5
      vertex 5 8.66025 -2.5
      vertex 3.4202 9.39693 -2.5
    endloop
  endfacet
  facet normal 0.0871562 0.996195 -0
    outer loop
      vertex 1.73648 9.84808 -2.5
      vertex 0 10 -1.5
      vertex 1.73648 9.84808 -1.5
    endloop
  endfacet
  facet normal 0.0871562 0.996195 0
    outer loop
      vertex 0 10 -1.5
      vertex 1.73648 9.84808 -2.5
      vertex 0 10 -2.5
    endloop
  endfacet
  facet normal -0.996195 0.0871562 0
    outer loop
      vertex -10 0 -2.5
      vertex -9.84808 1.73648 -1.5
      vertex -9.84808 1.73648 -2.5
    endloop
  endfacet
  facet normal -0.996195 0.0871562 0
    outer loop
      vertex -9.84808 1.73648 -1.5
      vertex -10 0 -2.5
      vertex -10 0 -1.5
    endloop
  endfacet
  facet normal -0.707107 0.707107 0
    outer loop
      vertex -7.66044 6.42788 -2.5
      vertex -6.42788 7.66044 -1.5
      vertex -6.42788 7.66044 -2.5
    endloop
  endfacet
  facet normal -0.707107 0.707107 0
    outer loop
      vertex -6.42788 7.66044 -1.5
      vertex -7.66044 6.42788 -2.5
      vertex -7.66044 6.42788 -1.5
    endloop
  endfacet
  facet normal -0.422619 0.906308 0
    outer loop
      vertex -3.4202 9.39693 -2.5
      vertex -5 8.66025 -1.5
      vertex -3.4202 9.39693 -1.5
    endloop
  endfacet
  facet normal -0.422619 0.906308 0
    outer loop
      vertex -5 8.66025 -1.5
      vertex -3.4202 9.39693 -2.5
      vertex -5 8.66025 -2.5
    endloop
  endfacet
  facet normal -0.0871562 0.996195 0
    outer loop
      vertex 0 10 -2.5
      vertex -1.73648 9.84808 -1.5
      vertex 0 10 -1.5
    endloop
  endfacet
  facet normal -0.0871562 0.996195 0
    outer loop
      vertex -1.73648 9.84808 -1.5
      vertex 0 10 -2.5
      vertex -1.73648 9.84808 -2.5
    endloop
  endfacet
  facet normal -0.573576 0.819152 0
    outer loop
      vertex -5 8.66025 -2.5
      vertex -6.42788 7.66044 -1.5
      vertex -5 8.66025 -1.5
    endloop
  endfacet
  facet normal -0.573576 0.819152 0
    outer loop
      vertex -6.42788 7.66044 -1.5
      vertex -5 8.66025 -2.5
      vertex -6.42788 7.66044 -2.5
    endloop
  endfacet
  facet normal 0.996195 0.0871562 0
    outer loop
      vertex 10 0 -1.5
      vertex 9.84808 1.73648 -2.5
      vertex 9.84808 1.73648 -1.5
    endloop
  endfacet
  facet normal 0.996195 0.0871562 0
    outer loop
      vertex 9.84808 1.73648 -2.5
      vertex 10 0 -1.5
      vertex 10 0 -2.5
    endloop
  endfacet
  facet normal 0.0871562 -0.996195 0
    outer loop
      vertex 0 -10 -2.5
      vertex 1.73648 -9.84808 -1.5
      vertex 0 -10 -1.5
    endloop
  endfacet
  facet normal 0.0871562 -0.996195 0
    outer loop
      vertex 1.73648 -9.84808 -1.5
      vertex 0 -10 -2.5
      vertex 1.73648 -9.84808 -2.5
    endloop
  endfacet
  facet normal 0.258819 -0.965926 0
    outer loop
      vertex 1.73648 -9.84808 -2.5
      vertex 3.4202 -9.39693 -1.5
      vertex 1.73648 -9.84808 -1.5
    endloop
  endfacet
  facet normal 0.258819 -0.965926 0
    outer loop
      vertex 3.4202 -9.39693 -1.5
      vertex 1.73648 -9.84808 -2.5
      vertex 3.4202 -9.39693 -2.5
    endloop
  endfacet
  facet normal 0.819152 -0.573576 0
    outer loop
      vertex 7.66044 -6.42788 -1.5
      vertex 8.66025 -5 -2.5
      vertex 8.66025 -5 -1.5
    endloop
  endfacet
  facet normal 0.819152 -0.573576 0
    outer loop
      vertex 8.66025 -5 -2.5
      vertex 7.66044 -6.42788 -1.5
      vertex 7.66044 -6.42788 -2.5
    endloop
  endfacet
  facet normal -0.0871562 -0.996195 0
    outer loop
      vertex -1.73648 -9.84808 -2.5
      vertex 0 -10 -1.5
      vertex -1.73648 -9.84808 -1.5
    endloop
  endfacet
  facet normal -0.0871562 -0.996195 -0
    outer loop
      vertex 0 -10 -1.5
      vertex -1.73648 -9.84808 -2.5
      vertex 0 -10 -2.5
    endloop
  endfacet
  facet normal -0.707107 -0.707107 0
    outer loop
      vertex -6.42788 -7.66044 -2.5
      vertex -7.66044 -6.42788 -1.5
      vertex -7.66044 -6.42788 -2.5
    endloop
  endfacet
  facet normal -0.707107 -0.707107 0
    outer loop
      vertex -7.66044 -6.42788 -1.5
      vertex -6.42788 -7.66044 -2.5
      vertex -6.42788 -7.66044 -1.5
    endloop
  endfacet
  facet normal -0.906308 -0.422618 0
    outer loop
      vertex -8.66025 -5 -2.5
      vertex -9.39693 -3.4202 -1.5
      vertex -9.39693 -3.4202 -2.5
    endloop
  endfacet
  facet normal -0.906308 -0.422618 0
    outer loop
      vertex -9.39693 -3.4202 -1.5
      vertex -8.66025 -5 -2.5
      vertex -8.66025 -5 -1.5
    endloop
  endfacet
  facet normal -0.996195 -0.0871562 0
    outer loop
      vertex -9.84808 -1.73648 -2.5
      vertex -10 0 -1.5
      vertex -10 0 -2.5
    endloop
  endfacet
  facet normal -0.996195 -0.0871562 0
    outer loop
      vertex -10 0 -1.5
      vertex -9.84808 -1.73648 -2.5
      vertex -9.84808 -1.73648 -1.5
    endloop
  endfacet
  facet normal 0 0 -1
    outer loop
      vertex 9.84808 -1.73648 -2.5
      vertex 9.84808 1.73648 -2.5
      vertex 10 0 -2.5
    endloop
  endfacet
  facet normal 0 0 -1
    outer loop
      vertex 9.39693 -3.4202 -2.5
      vertex 9.84808 1.73648 -2.5
      vertex 9.84808 -1.73648 -2.5
    endloop
  endfacet
  facet normal 0 0 -1
    outer loop
      vertex 9.39693 -3.4202 -2.5
      vertex 9.39693 3.4202 -2.5
      vertex 9.84808 1.73648 -2.5
    endloop
  endfacet
  facet normal 0 0 -1
    outer loop
      vertex 8.66025 -5 -2.5
      vertex 9.39693 3.4202 -2.5
      vertex 9.39693 -3.4202 -2.5
    endloop
  endfacet
  facet normal 0 0 -1
    outer loop
      vertex 8.66025 -5 -2.5
      vertex 8.66025 5 -2.5
      vertex 9.39693 3.4202 -2.5
    endloop
  endfacet
  facet normal 0 0 -1
    outer loop
      vertex 7.66044 -6.42788 -2.5
      vertex 8.66025 5 -2.5
      vertex 8.66025 -5 -2.5
    endloop
  endfacet
  facet normal 0 0 -1
    outer loop
      vertex 7.66044 -6.42788 -2.5
      vertex 7.66044 6.42788 -2.5
      vertex 8.66025 5 -2.5
    endloop
  endfacet
  facet normal 0 0 -1
    outer loop
      vertex 6.42788 -7.66044 -2.5
      vertex 7.66044 6.42788 -2.5
      vertex 7.66044 -6.42788 -2.5
    endloop
  endfacet
  facet normal 0 0 -1
    outer loop
      vertex 6.42788 -7.66044 -2.5
      vertex 6.42788 7.66044 -2.5
      vertex 7.66044 6.42788 -2.5
    endloop
  endfacet
  facet normal 0 0 -1
    outer loop
      vertex 6.42788 -7.66044 -2.5
      vertex 5 8.66025 -2.5
      vertex 6.42788 7.66044 -2.5
    endloop
  endfacet
  facet normal 0 0 -1
    outer loop
      vertex 5 -8.66025 -2.5
      vertex 5 8.66025 -2.5
      vertex 6.42788 -7.66044 -2.5
    endloop
  endfacet
  facet normal 0 0 -1
    outer loop
      vertex 3.4202 -9.39693 -2.5
      vertex 5 8.66025 -2.5
      vertex 5 -8.66025 -2.5
    endloop
  endfacet
  facet normal 0 0 -1
    outer loop
      vertex 3.4202 -9.39693 -2.5
      vertex 3.4202 9.39693 -2.5
      vertex 5 8.66025 -2.5
    endloop
  endfacet
  facet normal 0 0 -1
    outer loop
      vertex 1.73648 -9.84808 -2.5
      vertex 3.4202 9.39693 -2.5
      vertex 3.4202 -9.39693 -2.5
    endloop
  endfacet
  facet normal 0 0 -1
    outer loop
      vertex 1.73648 -9.84808 -2.5
      vertex 1.73648 9.84808 -2.5
      vertex 3.4202 9.39693 -2.5
    endloop
  endfacet
  facet normal 0 0 -1
    outer loop
      vertex 0 -10 -2.5
      vertex 1.73648 9.84808 -2.5
      vertex 1.73648 -9.84808 -2.5
    endloop
  endfacet
  facet normal 0 0 -1
    outer loop
      vertex 0 -10 -2.5
      vertex 0 10 -2.5
      vertex 1.73648 9.84808 -2.5
    endloop
  endfacet
  facet normal 0 0 -1
    outer loop
      vertex -1.73648 -9.84808 -2.5
      vertex 0 10 -2.5
      vertex 0 -10 -2.5
    endloop
  endfacet
  facet normal 0 0 -1
    outer loop
      vertex -1.73648 -9.84808 -2.5
      vertex -1.73648 9.84808 -2.5
      vertex 0 10 -2.5
    endloop
  endfacet
  facet normal 0 0 -1
    outer loop
      vertex -3.4202 -9.39693 -2.5
      vertex -1.73648 9.84808 -2.5
      vertex -1.73648 -9.84808 -2.5
    endloop
  endfacet
  facet normal 0 0 -1
    outer loop
      vertex -3.4202 -9.39693 -2.5
      vertex -3.4202 9.39693 -2.5
      vertex -1.73648 9.84808 -2.5
    endloop
  endfacet
  facet normal 0 0 -1
    outer loop
      vertex -3.4202 -9.39693 -2.5
      vertex -5 8.66025 -2.5
      vertex -3.4202 9.39693 -2.5
    endloop
  endfacet
  facet normal 0 0 -1
    outer loop
      vertex -5 -8.66025 -2.5
      vertex -5 8.66025 -2.5
      vertex -3.4202 -9.39693 -2.5
    endloop
  endfacet
  facet normal 0 0 -1
    outer loop
      vertex -6.42788 -7.66044 -2.5
      vertex -5 8.66025 -2.5
      vertex -5 -8.66025 -2.5
    endloop
  endfacet
  facet normal 0 0 -1
    outer loop
      vertex -6.42788 -7.66044 -2.5
      vertex -6.42788 7.66044 -2.5
      vertex -5 8.66025 -2.5
    endloop
  endfacet
  facet normal 0 0 -1
    outer loop
      vertex -7.66044 -6.42788 -2.5
      vertex -6.42788 7.66044 -2.5
      vertex -6.42788 -7.66044 -2.5
    endloop
  endfacet
  facet normal 0 0 -1
    outer loop
      vertex -7.66044 -6.42788 -2.5
      vertex -7.66044 6.42788 -2.5
      vertex -6.42788 7.66044 -2.5
    endloop
  endfacet
  facet normal 0 0 -1
    outer loop
      vertex -8.66025 -5 -2.5
      vertex -7.66044 6.42788 -2.5
      vertex -7.66044 -6.42788 -2.5
    endloop
  endfacet
  facet normal 0 0 -1
    outer loop
      vertex -8.66025 -5 -2.5
      vertex -8.66025 5 -2.5
      vertex -7.66044 6.42788 -2.5
    endloop
  endfacet
  facet normal 0 0 -1
    outer loop
      vertex -9.39693 -3.4202 -2.5
      vertex -8.66025 5 -2.5
      vertex -8.66025 -5 -2.5
    endloop
  endfacet
  facet normal 0 0 -1
    outer loop
      vertex -9.39693 -3.4202 -2.5
      vertex -9.39693 3.4202 -2.5
      vertex -8.66025 5 -2.5
    endloop
  endfacet
  facet normal 0 0 -1
    outer loop
      vertex -9.84808 -1.73648 -2.5
      vertex -9.39693 3.4202 -2.5
      vertex -9.39693 -3.4202 -2.5
    endloop
  endfacet
  facet normal 0 0 -1
    outer loop
      vertex -9.84808 -1.73648 -2.5
      vertex -9.84808 1.73648 -2.5
      vertex -9.39693 3.4202 -2.5
    endloop
  endfacet
  facet normal 0 -0 -1
    outer loop
      vertex -9.84808 1.73648 -2.5
      vertex -9.84808 -1.73648 -2.5
      vertex -10 0 -2.5
    endloop
  endfacet
  facet normal -0.819152 -0.573576 0
    outer loop
      vertex -7.66044 -6.42788 -2.5
      vertex -8.66025 -5 -1.5
      vertex -8.66025 -5 -2.5
    endloop
  endfacet
  facet normal -0.819152 -0.573576 0
    outer loop
      vertex -8.66025 -5 -1.5
      vertex -7.66044 -6.42788 -2.5
      vertex -7.66044 -6.42788 -1.5
    endloop
  endfacet
  facet normal 0.258819 0.965926 -0
    outer loop
      vertex 3.4202 9.39693 -2.5
      vertex 1.73648 9.84808 -1.5
      vertex 3.4202 9.39693 -1.5
    endloop
  endfacet
  facet normal 0.258819 0.965926 0
    outer loop
      vertex 1.73648 9.84808 -1.5
      vertex 3.4202 9.39693 -2.5
      vertex 1.73648 9.84808 -2.5
    endloop
  endfacet
  facet normal 0 0 1
    outer loop
      vertex 4.5 0 -1.5
      vertex 10 0 -1.5
      vertex 9.84808 1.73648 -1.5
    endloop
  endfacet
  facet normal 0 0 1
    outer loop
      vertex 4.43163 0.781416 -1.5
      vertex 9.84808 1.73648 -1.5
      vertex 9.39693 3.4202 -1.5
    endloop
  endfacet
  facet normal 0 0 1
    outer loop
      vertex 10 0 -1.5
      vertex 4.5 0 -1.5
      vertex 9.84808 -1.73648 -1.5
    endloop
  endfacet
  facet normal 0 0 1
    outer loop
      vertex 4.22862 1.53909 -1.5
      vertex 9.39693 3.4202 -1.5
      vertex 8.66025 5 -1.5
    endloop
  endfacet
  facet normal -0 0 1
    outer loop
      vertex 4.43163 -0.781416 -1.5
      vertex 9.84808 -1.73648 -1.5
      vertex 4.5 0 -1.5
    endloop
  endfacet
  facet normal 0 0 1
    outer loop
      vertex 3.89711 2.25 -1.5
      vertex 8.66025 5 -1.5
      vertex 7.66044 6.42788 -1.5
    endloop
  endfacet
  facet normal 0 0 1
    outer loop
      vertex 9.84808 -1.73648 -1.5
      vertex 4.43163 -0.781416 -1.5
      vertex 9.39693 -3.4202 -1.5
    endloop
  endfacet
  facet normal 0 0 1
    outer loop
      vertex 3.4472 2.89254 -1.5
      vertex 7.66044 6.42788 -1.5
      vertex 6.42788 7.66044 -1.5
    endloop
  endfacet
  facet normal -0 0 1
    outer loop
      vertex 4.22862 -1.53909 -1.5
      vertex 9.39693 -3.4202 -1.5
      vertex 4.43163 -0.781416 -1.5
    endloop
  endfacet
  facet normal 0 0 1
    outer loop
      vertex 2.89254 3.4472 -1.5
      vertex 6.42788 7.66044 -1.5
      vertex 5 8.66025 -1.5
    endloop
  endfacet
  facet normal 0 0 1
    outer loop
      vertex 9.39693 -3.4202 -1.5
      vertex 4.22862 -1.53909 -1.5
      vertex 8.66025 -5 -1.5
    endloop
  endfacet
  facet normal -0 0 1
    outer loop
      vertex 3.89711 -2.25 -1.5
      vertex 8.66025 -5 -1.5
      vertex 4.22862 -1.53909 -1.5
    endloop
  endfacet
  facet normal 0 0 1
    outer loop
      vertex 9.84808 1.73648 -1.5
      vertex 4.43163 0.781416 -1.5
      vertex 4.5 0 -1.5
    endloop
  endfacet
  facet normal 0 0 1
    outer loop
      vertex 9.39693 3.4202 -1.5
      vertex 4.22862 1.53909 -1.5
      vertex 4.43163 0.781416 -1.5
    endloop
  endfacet
  facet normal 0 0 1
    outer loop
      vertex 8.66025 5 -1.5
      vertex 3.89711 2.25 -1.5
      vertex 4.22862 1.53909 -1.5
    endloop
  endfacet
  facet normal 0 0 1
    outer loop
      vertex 7.66044 6.42788 -1.5
      vertex 3.4472 2.89254 -1.5
      vertex 3.89711 2.25 -1.5
    endloop
  endfacet
  facet normal 0 0 1
    outer loop
      vertex 2.25 3.89711 -1.5
      vertex 5 8.66025 -1.5
      vertex 3.4202 9.39693 -1.5
    endloop
  endfacet
  facet normal 0 0 1
    outer loop
      vertex 6.42788 7.66044 -1.5
      vertex 2.89254 3.4472 -1.5
      vertex 3.4472 2.89254 -1.5
    endloop
  endfacet
  facet normal 0 0 1
    outer loop
      vertex 5 8.66025 -1.5
      vertex 2.25 3.89711 -1.5
      vertex 2.89254 3.4472 -1.5
    endloop
  endfacet
  facet normal 0 0 1
    outer loop
      vertex 1.53909 4.22862 -1.5
      vertex 3.4202 9.39693 -1.5
      vertex 1.73648 9.84808 -1.5
    endloop
  endfacet
  facet normal 0 0 1
    outer loop
      vertex 3.4202 9.39693 -1.5
      vertex 1.53909 4.22862 -1.5
      vertex 2.25 3.89711 -1.5
    endloop
  endfacet
  facet normal 0 0 1
    outer loop
      vertex 1.73648 9.84808 -1.5
      vertex 0.781416 4.43163 -1.5
      vertex 1.53909 4.22862 -1.5
    endloop
  endfacet
  facet normal 0 0 1
    outer loop
      vertex 0 10 -1.5
      vertex 0.781416 4.43163 -1.5
      vertex 1.73648 9.84808 -1.5
    endloop
  endfacet
  facet normal 0 0 1
    outer loop
      vertex 0 10 -1.5
      vertex 0 4.5 -1.5
      vertex 0.781416 4.43163 -1.5
    endloop
  endfacet
  facet normal 0 0 1
    outer loop
      vertex 0 10 -1.5
      vertex -0.781416 4.43163 -1.5
      vertex 0 4.5 -1.5
    endloop
  endfacet
  facet normal -0 0 1
    outer loop
      vertex -1.73648 9.84808 -1.5
      vertex -0.781416 4.43163 -1.5
      vertex 0 10 -1.5
    endloop
  endfacet
  facet normal 0 0 1
    outer loop
      vertex -0.781416 4.43163 -1.5
      vertex -1.73648 9.84808 -1.5
      vertex -1.53909 4.22862 -1.5
    endloop
  endfacet
  facet normal -0 0 1
    outer loop
      vertex -3.4202 9.39693 -1.5
      vertex -1.53909 4.22862 -1.5
      vertex -1.73648 9.84808 -1.5
    endloop
  endfacet
  facet normal 0 0 1
    outer loop
      vertex -1.53909 4.22862 -1.5
      vertex -3.4202 9.39693 -1.5
      vertex -2.25 3.89711 -1.5
    endloop
  endfacet
  facet normal -0 0 1
    outer loop
      vertex -5 8.66025 -1.5
      vertex -2.25 3.89711 -1.5
      vertex -3.4202 9.39693 -1.5
    endloop
  endfacet
  facet normal 0 0 1
    outer loop
      vertex -2.25 3.89711 -1.5
      vertex -5 8.66025 -1.5
      vertex -2.89254 3.4472 -1.5
    endloop
  endfacet
  facet normal -0 0 1
    outer loop
      vertex -6.42788 7.66044 -1.5
      vertex -2.89254 3.4472 -1.5
      vertex -5 8.66025 -1.5
    endloop
  endfacet
  facet normal 0 0 1
    outer loop
      vertex -2.89254 3.4472 -1.5
      vertex -6.42788 7.66044 -1.5
      vertex -3.4472 2.89254 -1.5
    endloop
  endfacet
  facet normal -0 0 1
    outer loop
      vertex -7.66044 6.42788 -1.5
      vertex -3.4472 2.89254 -1.5
      vertex -6.42788 7.66044 -1.5
    endloop
  endfacet
  facet normal -0 0 1
    outer loop
      vertex -8.66025 5 -1.5
      vertex -3.89711 2.25 -1.5
      vertex -7.66044 6.42788 -1.5
    endloop
  endfacet
  facet normal 0 0 1
    outer loop
      vertex -3.4472 2.89254 -1.5
      vertex -7.66044 6.42788 -1.5
      vertex -3.89711 2.25 -1.5
    endloop
  endfacet
  facet normal 0 0 1
    outer loop
      vertex 8.66025 -5 -1.5
      vertex 3.89711 -2.25 -1.5
      vertex 7.66044 -6.42788 -1.5
    endloop
  endfacet
  facet normal -0 0 1
    outer loop
      vertex 3.4472 -2.89254 -1.5
      vertex 7.66044 -6.42788 -1.5
      vertex 3.89711 -2.25 -1.5
    endloop
  endfacet
  facet normal 0 0 1
    outer loop
      vertex 7.66044 -6.42788 -1.5
      vertex 3.4472 -2.89254 -1.5
      vertex 6.42788 -7.66044 -1.5
    endloop
  endfacet
  facet normal -0 0 1
    outer loop
      vertex 2.89254 -3.4472 -1.5
      vertex 6.42788 -7.66044 -1.5
      vertex 3.4472 -2.89254 -1.5
    endloop
  endfacet
  facet normal 0 0 1
    outer loop
      vertex 6.42788 -7.66044 -1.5
      vertex 2.89254 -3.4472 -1.5
      vertex 5 -8.66025 -1.5
    endloop
  endfacet
  facet normal -0 0 1
    outer loop
      vertex 2.25 -3.89711 -1.5
      vertex 5 -8.66025 -1.5
      vertex 2.89254 -3.4472 -1.5
    endloop
  endfacet
  facet normal 0 0 1
    outer loop
      vertex 5 -8.66025 -1.5
      vertex 2.25 -3.89711 -1.5
      vertex 3.4202 -9.39693 -1.5
    endloop
  endfacet
  facet normal -0 0 1
    outer loop
      vertex 1.53909 -4.22862 -1.5
      vertex 3.4202 -9.39693 -1.5
      vertex 2.25 -3.89711 -1.5
    endloop
  endfacet
  facet normal 0 0 1
    outer loop
      vertex 3.4202 -9.39693 -1.5
      vertex 1.53909 -4.22862 -1.5
      vertex 1.73648 -9.84808 -1.5
    endloop
  endfacet
  facet normal -0 0 1
    outer loop
      vertex 0.781416 -4.43163 -1.5
      vertex 1.73648 -9.84808 -1.5
      vertex 1.53909 -4.22862 -1.5
    endloop
  endfacet
  facet normal -0 0 1
    outer loop
      vertex 0 -4.5 -1.5
      vertex 1.73648 -9.84808 -1.5
      vertex 0.781416 -4.43163 -1.5
    endloop
  endfacet
  facet normal 0 0 1
    outer loop
      vertex 0 -4.5 -1.5
      vertex 0 -10 -1.5
      vertex 1.73648 -9.84808 -1.5
    endloop
  endfacet
  facet normal 0 0 1
    outer loop
      vertex -0.781416 -4.43163 -1.5
      vertex 0 -10 -1.5
      vertex 0 -4.5 -1.5
    endloop
  endfacet
  facet normal 0 0 1
    outer loop
      vertex -1.73648 -9.84808 -1.5
      vertex -0.781416 -4.43163 -1.5
      vertex -1.53909 -4.22862 -1.5
    endloop
  endfacet
  facet normal 0 0 1
    outer loop
      vertex -0.781416 -4.43163 -1.5
      vertex -1.73648 -9.84808 -1.5
      vertex 0 -10 -1.5
    endloop
  endfacet
  facet normal 0 0 1
    outer loop
      vertex -3.4202 -9.39693 -1.5
      vertex -1.53909 -4.22862 -1.5
      vertex -2.25 -3.89711 -1.5
    endloop
  endfacet
  facet normal 0 0 1
    outer loop
      vertex -5 -8.66025 -1.5
      vertex -2.25 -3.89711 -1.5
      vertex -2.89254 -3.4472 -1.5
    endloop
  endfacet
  facet normal 0 0 1
    outer loop
      vertex -1.53909 -4.22862 -1.5
      vertex -3.4202 -9.39693 -1.5
      vertex -1.73648 -9.84808 -1.5
    endloop
  endfacet
  facet normal 0 0 1
    outer loop
      vertex -6.42788 -7.66044 -1.5
      vertex -2.89254 -3.4472 -1.5
      vertex -3.4472 -2.89254 -1.5
    endloop
  endfacet
  facet normal 0 0 1
    outer loop
      vertex -7.66044 -6.42788 -1.5
      vertex -3.4472 -2.89254 -1.5
      vertex -3.89711 -2.25 -1.5
    endloop
  endfacet
  facet normal 0 0 1
    outer loop
      vertex -8.66025 -5 -1.5
      vertex -3.89711 -2.25 -1.5
      vertex -4.22862 -1.53909 -1.5
    endloop
  endfacet
  facet normal 0 0 1
    outer loop
      vertex -9.39693 -3.4202 -1.5
      vertex -4.22862 -1.53909 -1.5
      vertex -4.43163 -0.781416 -1.5
    endloop
  endfacet
  facet normal 0 0 1
    outer loop
      vertex -2.25 -3.89711 -1.5
      vertex -5 -8.66025 -1.5
      vertex -3.4202 -9.39693 -1.5
    endloop
  endfacet
  facet normal 0 0 1
    outer loop
      vertex -9.84808 -1.73648 -1.5
      vertex -4.43163 -0.781416 -1.5
      vertex -4.5 0 -1.5
    endloop
  endfacet
  facet normal 0 0 1
    outer loop
      vertex -3.89711 2.25 -1.5
      vertex -8.66025 5 -1.5
      vertex -4.22862 1.53909 -1.5
    endloop
  endfacet
  facet normal -0 0 1
    outer loop
      vertex -9.39693 3.4202 -1.5
      vertex -4.22862 1.53909 -1.5
      vertex -8.66025 5 -1.5
    endloop
  endfacet
  facet normal 0 0 1
    outer loop
      vertex -2.89254 -3.4472 -1.5
      vertex -6.42788 -7.66044 -1.5
      vertex -5 -8.66025 -1.5
    endloop
  endfacet
  facet normal 0 0 1
    outer loop
      vertex -4.22862 1.53909 -1.5
      vertex -9.39693 3.4202 -1.5
      vertex -4.43163 0.781416 -1.5
    endloop
  endfacet
  facet normal 0 0 1
    outer loop
      vertex -3.4472 -2.89254 -1.5
      vertex -7.66044 -6.42788 -1.5
      vertex -6.42788 -7.66044 -1.5
    endloop
  endfacet
  facet normal -0 0 1
    outer loop
      vertex -9.84808 1.73648 -1.5
      vertex -4.43163 0.781416 -1.5
      vertex -9.39693 3.4202 -1.5
    endloop
  endfacet
  facet normal 0 0 1
    outer loop
      vertex -3.89711 -2.25 -1.5
      vertex -8.66025 -5 -1.5
      vertex -7.66044 -6.42788 -1.5
    endloop
  endfacet
  facet normal 0 0 1
    outer loop
      vertex -4.43163 0.781416 -1.5
      vertex -9.84808 1.73648 -1.5
      vertex -4.5 0 -1.5
    endloop
  endfacet
  facet normal 0 0 1
    outer loop
      vertex -4.22862 -1.53909 -1.5
      vertex -9.39693 -3.4202 -1.5
      vertex -8.66025 -5 -1.5
    endloop
  endfacet
  facet normal 0 0 1
    outer loop
      vertex -10 0 -1.5
      vertex -4.5 0 -1.5
      vertex -9.84808 1.73648 -1.5
    endloop
  endfacet
  facet normal 0 0 1
    outer loop
      vertex -4.43163 -0.781416 -1.5
      vertex -9.84808 -1.73648 -1.5
      vertex -9.39693 -3.4202 -1.5
    endloop
  endfacet
  facet normal 0 0 1
    outer loop
      vertex -4.5 0 -1.5
      vertex -10 0 -1.5
      vertex -9.84808 -1.73648 -1.5
    endloop
  endfacet
  facet normal -0.965926 0.258819 0
    outer loop
      vertex -9.84808 1.73648 -2.5
      vertex -9.39693 3.4202 -1.5
      vertex -9.39693 3.4202 -2.5
    endloop
  endfacet
  facet normal -0.965926 0.258819 0
    outer loop
      vertex -9.39693 3.4202 -1.5
      vertex -9.84808 1.73648 -2.5
      vertex -9.84808 1.73648 -1.5
    endloop
  endfacet
  facet normal -0.819152 0.573576 0
    outer loop
      vertex -8.66025 5 -2.5
      vertex -7.66044 6.42788 -1.5
      vertex -7.66044 6.42788 -2.5
    endloop
  endfacet
  facet normal -0.819152 0.573576 0
    outer loop
      vertex -7.66044 6.42788 -1.5
      vertex -8.66025 5 -2.5
      vertex -8.66025 5 -1.5
    endloop
  endfacet
  facet normal 0.965926 -0.258819 0
    outer loop
      vertex 9.39693 -3.4202 -1.5
      vertex 9.84808 -1.73648 -2.5
      vertex 9.84808 -1.73648 -1.5
    endloop
  endfacet
  facet normal 0.965926 -0.258819 0
    outer loop
      vertex 9.84808 -1.73648 -2.5
      vertex 9.39693 -3.4202 -1.5
      vertex 9.39693 -3.4202 -2.5
    endloop
  endfacet
  facet normal 0.707107 -0.707107 0
    outer loop
      vertex 6.42788 -7.66044 -1.5
      vertex 7.66044 -6.42788 -2.5
      vertex 7.66044 -6.42788 -1.5
    endloop
  endfacet
  facet normal 0.707107 -0.707107 0
    outer loop
      vertex 7.66044 -6.42788 -2.5
      vertex 6.42788 -7.66044 -1.5
      vertex 6.42788 -7.66044 -2.5
    endloop
  endfacet
  facet normal 0.422619 -0.906308 0
    outer loop
      vertex 3.4202 -9.39693 -2.5
      vertex 5 -8.66025 -1.5
      vertex 3.4202 -9.39693 -1.5
    endloop
  endfacet
  facet normal 0.422619 -0.906308 0
    outer loop
      vertex 5 -8.66025 -1.5
      vertex 3.4202 -9.39693 -2.5
      vertex 5 -8.66025 -2.5
    endloop
  endfacet
  facet normal 0.906308 -0.422619 0
    outer loop
      vertex 8.66025 -5 -1.5
      vertex 9.39693 -3.4202 -2.5
      vertex 9.39693 -3.4202 -1.5
    endloop
  endfacet
  facet normal 0.906308 -0.422619 0
    outer loop
      vertex 9.39693 -3.4202 -2.5
      vertex 8.66025 -5 -1.5
      vertex 8.66025 -5 -2.5
    endloop
  endfacet
  facet normal -0.573576 -0.819152 0
    outer loop
      vertex -6.42788 -7.66044 -2.5
      vertex -5 -8.66025 -1.5
      vertex -6.42788 -7.66044 -1.5
    endloop
  endfacet
  facet normal -0.573576 -0.819152 -0
    outer loop
      vertex -5 -8.66025 -1.5
      vertex -6.42788 -7.66044 -2.5
      vertex -5 -8.66025 -2.5
    endloop
  endfacet
  facet normal -0.965926 -0.258819 0
    outer loop
      vertex -9.39693 -3.4202 -2.5
      vertex -9.84808 -1.73648 -1.5
      vertex -9.84808 -1.73648 -2.5
    endloop
  endfacet
  facet normal -0.965926 -0.258819 0
    outer loop
      vertex -9.84808 -1.73648 -1.5
      vertex -9.39693 -3.4202 -2.5
      vertex -9.39693 -3.4202 -1.5
    endloop
  endfacet
  facet normal 0.996195 -0.0871562 0
    outer loop
      vertex 9.84808 -1.73648 -1.5
      vertex 10 0 -2.5
      vertex 10 0 -1.5
    endloop
  endfacet
  facet normal 0.996195 -0.0871562 0
    outer loop
      vertex 10 0 -2.5
      vertex 9.84808 -1.73648 -1.5
      vertex 9.84808 -1.73648 -2.5
    endloop
  endfacet
  facet normal 0.573576 -0.819152 0
    outer loop
      vertex 5 -8.66025 -2.5
      vertex 6.42788 -7.66044 -1.5
      vertex 5 -8.66025 -1.5
    endloop
  endfacet
  facet normal 0.573576 -0.819152 0
    outer loop
      vertex 6.42788 -7.66044 -1.5
      vertex 5 -8.66025 -2.5
      vertex 6.42788 -7.66044 -2.5
    endloop
  endfacet
  facet normal 0.996195 0.087157 0
    outer loop
      vertex 4.5 0 1.5
      vertex 4.43163 0.781416 -1.5
      vertex 4.43163 0.781416 1.5
    endloop
  endfacet
  facet normal 0.996195 0.087157 0
    outer loop
      vertex 4.43163 0.781416 -1.5
      vertex 4.5 0 1.5
      vertex 4.5 0 -1.5
    endloop
  endfacet
  facet normal -0.996195 0.087157 0
    outer loop
      vertex -4.5 0 -1.5
      vertex -4.43163 0.781416 1.5
      vertex -4.43163 0.781416 -1.5
    endloop
  endfacet
  facet normal -0.996195 0.087157 0
    outer loop
      vertex -4.43163 0.781416 1.5
      vertex -4.5 0 -1.5
      vertex -4.5 0 1.5
    endloop
  endfacet
  facet normal 0.087157 0.996195 -0
    outer loop
      vertex 0.781416 4.43163 -1.5
      vertex 0 4.5 1.5
      vertex 0.781416 4.43163 1.5
    endloop
  endfacet
  facet normal 0.087157 0.996195 0
    outer loop
      vertex 0 4.5 1.5
      vertex 0.781416 4.43163 -1.5
      vertex 0 4.5 -1.5
    endloop
  endfacet
  facet normal 0.707107 0.707107 0
    outer loop
      vertex 3.4472 2.89254 1.5
      vertex 2.89254 3.4472 -1.5
      vertex 2.89254 3.4472 1.5
    endloop
  endfacet
  facet normal 0.707107 0.707107 0
    outer loop
      vertex 2.89254 3.4472 -1.5
      vertex 3.4472 2.89254 1.5
      vertex 3.4472 2.89254 -1.5
    endloop
  endfacet
  facet normal -0.573576 0.819152 0
    outer loop
      vertex -2.25 3.89711 -1.5
      vertex -2.89254 3.4472 1.5
      vertex -2.25 3.89711 1.5
    endloop
  endfacet
  facet normal -0.573576 0.819152 0
    outer loop
      vertex -2.89254 3.4472 1.5
      vertex -2.25 3.89711 -1.5
      vertex -2.89254 3.4472 -1.5
    endloop
  endfacet
  facet normal -0.258818 0.965926 0
    outer loop
      vertex -0.781416 4.43163 -1.5
      vertex -1.53909 4.22862 1.5
      vertex -0.781416 4.43163 1.5
    endloop
  endfacet
  facet normal -0.258818 0.965926 0
    outer loop
      vertex -1.53909 4.22862 1.5
      vertex -0.781416 4.43163 -1.5
      vertex -1.53909 4.22862 -1.5
    endloop
  endfacet
  facet normal -0.819152 -0.573576 0
    outer loop
      vertex -3.4472 -2.89254 -1.5
      vertex -3.89711 -2.25 1.5
      vertex -3.89711 -2.25 -1.5
    endloop
  endfacet
  facet normal -0.819152 -0.573576 0
    outer loop
      vertex -3.89711 -2.25 1.5
      vertex -3.4472 -2.89254 -1.5
      vertex -3.4472 -2.89254 1.5
    endloop
  endfacet
  facet normal 0.906307 0.422619 0
    outer loop
      vertex 4.22862 1.53909 1.5
      vertex 3.89711 2.25 -1.5
      vertex 3.89711 2.25 1.5
    endloop
  endfacet
  facet normal 0.906307 0.422619 0
    outer loop
      vertex 3.89711 2.25 -1.5
      vertex 4.22862 1.53909 1.5
      vertex 4.22862 1.53909 -1.5
    endloop
  endfacet
  facet normal 0.965926 0.258818 0
    outer loop
      vertex 4.43163 0.781416 1.5
      vertex 4.22862 1.53909 -1.5
      vertex 4.22862 1.53909 1.5
    endloop
  endfacet
  facet normal 0.965926 0.258818 0
    outer loop
      vertex 4.22862 1.53909 -1.5
      vertex 4.43163 0.781416 1.5
      vertex 4.43163 0.781416 -1.5
    endloop
  endfacet
  facet normal 0.819152 0.573576 0
    outer loop
      vertex 3.89711 2.25 1.5
      vertex 3.4472 2.89254 -1.5
      vertex 3.4472 2.89254 1.5
    endloop
  endfacet
  facet normal 0.819152 0.573576 0
    outer loop
      vertex 3.4472 2.89254 -1.5
      vertex 3.89711 2.25 1.5
      vertex 3.89711 2.25 -1.5
    endloop
  endfacet
  facet normal 0.422618 0.906308 -0
    outer loop
      vertex 2.25 3.89711 -1.5
      vertex 1.53909 4.22862 1.5
      vertex 2.25 3.89711 1.5
    endloop
  endfacet
  facet normal 0.422618 0.906308 0
    outer loop
      vertex 1.53909 4.22862 1.5
      vertex 2.25 3.89711 -1.5
      vertex 1.53909 4.22862 -1.5
    endloop
  endfacet
  facet normal 0.258818 0.965926 -0
    outer loop
      vertex 1.53909 4.22862 -1.5
      vertex 0.781416 4.43163 1.5
      vertex 1.53909 4.22862 1.5
    endloop
  endfacet
  facet normal 0.258818 0.965926 0
    outer loop
      vertex 0.781416 4.43163 1.5
      vertex 1.53909 4.22862 -1.5
      vertex 0.781416 4.43163 -1.5
    endloop
  endfacet
  facet normal 0.573576 0.819152 -0
    outer loop
      vertex 2.89254 3.4472 -1.5
      vertex 2.25 3.89711 1.5
      vertex 2.89254 3.4472 1.5
    endloop
  endfacet
  facet normal 0.573576 0.819152 0
    outer loop
      vertex 2.25 3.89711 1.5
      vertex 2.89254 3.4472 -1.5
      vertex 2.25 3.89711 -1.5
    endloop
  endfacet
  facet normal -0.819152 0.573576 0
    outer loop
      vertex -3.89711 2.25 -1.5
      vertex -3.4472 2.89254 1.5
      vertex -3.4472 2.89254 -1.5
    endloop
  endfacet
  facet normal -0.819152 0.573576 0
    outer loop
      vertex -3.4472 2.89254 1.5
      vertex -3.89711 2.25 -1.5
      vertex -3.89711 2.25 1.5
    endloop
  endfacet
  facet normal -0.707107 0.707107 0
    outer loop
      vertex -3.4472 2.89254 -1.5
      vertex -2.89254 3.4472 1.5
      vertex -2.89254 3.4472 -1.5
    endloop
  endfacet
  facet normal -0.707107 0.707107 0
    outer loop
      vertex -2.89254 3.4472 1.5
      vertex -3.4472 2.89254 -1.5
      vertex -3.4472 2.89254 1.5
    endloop
  endfacet
  facet normal -0.965926 0.258818 0
    outer loop
      vertex -4.43163 0.781416 -1.5
      vertex -4.22862 1.53909 1.5
      vertex -4.22862 1.53909 -1.5
    endloop
  endfacet
  facet normal -0.965926 0.258818 0
    outer loop
      vertex -4.22862 1.53909 1.5
      vertex -4.43163 0.781416 -1.5
      vertex -4.43163 0.781416 1.5
    endloop
  endfacet
  facet normal 0 0 1
    outer loop
      vertex 4.43163 0.781416 1.5
      vertex 4.43163 -0.781416 1.5
      vertex 4.5 0 1.5
    endloop
  endfacet
  facet normal 0 0 1
    outer loop
      vertex 4.22862 1.53909 1.5
      vertex 4.43163 -0.781416 1.5
      vertex 4.43163 0.781416 1.5
    endloop
  endfacet
  facet normal 0 0 1
    outer loop
      vertex 4.22862 1.53909 1.5
      vertex 4.22862 -1.53909 1.5
      vertex 4.43163 -0.781416 1.5
    endloop
  endfacet
  facet normal 0 0 1
    outer loop
      vertex 3.89711 2.25 1.5
      vertex 4.22862 -1.53909 1.5
      vertex 4.22862 1.53909 1.5
    endloop
  endfacet
  facet normal 0 0 1
    outer loop
      vertex 3.89711 2.25 1.5
      vertex 3.89711 -2.25 1.5
      vertex 4.22862 -1.53909 1.5
    endloop
  endfacet
  facet normal 0 0 1
    outer loop
      vertex 3.4472 2.89254 1.5
      vertex 3.89711 -2.25 1.5
      vertex 3.89711 2.25 1.5
    endloop
  endfacet
  facet normal 0 0 1
    outer loop
      vertex 3.4472 2.89254 1.5
      vertex 3.4472 -2.89254 1.5
      vertex 3.89711 -2.25 1.5
    endloop
  endfacet
  facet normal 0 0 1
    outer loop
      vertex 2.89254 3.4472 1.5
      vertex 3.4472 -2.89254 1.5
      vertex 3.4472 2.89254 1.5
    endloop
  endfacet
  facet normal 0 0 1
    outer loop
      vertex 2.89254 3.4472 1.5
      vertex 2.89254 -3.4472 1.5
      vertex 3.4472 -2.89254 1.5
    endloop
  endfacet
  facet normal 0 0 1
    outer loop
      vertex 2.25 3.89711 1.5
      vertex 2.89254 -3.4472 1.5
      vertex 2.89254 3.4472 1.5
    endloop
  endfacet
  facet normal 0 0 1
    outer loop
      vertex 2.25 3.89711 1.5
      vertex 2.25 -3.89711 1.5
      vertex 2.89254 -3.4472 1.5
    endloop
  endfacet
  facet normal 0 0 1
    outer loop
      vertex 1.53909 4.22862 1.5
      vertex 2.25 -3.89711 1.5
      vertex 2.25 3.89711 1.5
    endloop
  endfacet
  facet normal 0 0 1
    outer loop
      vertex 1.53909 4.22862 1.5
      vertex 1.53909 -4.22862 1.5
      vertex 2.25 -3.89711 1.5
    endloop
  endfacet
  facet normal 0 0 1
    outer loop
      vertex 0.781416 4.43163 1.5
      vertex 1.53909 -4.22862 1.5
      vertex 1.53909 4.22862 1.5
    endloop
  endfacet
  facet normal 0 0 1
    outer loop
      vertex 0.781416 4.43163 1.5
      vertex 0.781416 -4.43163 1.5
      vertex 1.53909 -4.22862 1.5
    endloop
  endfacet
  facet normal 0 0 1
    outer loop
      vertex 0 4.5 1.5
      vertex 0.781416 -4.43163 1.5
      vertex 0.781416 4.43163 1.5
    endloop
  endfacet
  facet normal 0 0 1
    outer loop
      vertex 0 4.5 1.5
      vertex 0 -4.5 1.5
      vertex 0.781416 -4.43163 1.5
    endloop
  endfacet
  facet normal -0 0 1
    outer loop
      vertex -0.781416 4.43163 1.5
      vertex 0 -4.5 1.5
      vertex 0 4.5 1.5
    endloop
  endfacet
  facet normal 0 0 1
    outer loop
      vertex -0.781416 4.43163 1.5
      vertex -0.781416 -4.43163 1.5
      vertex 0 -4.5 1.5
    endloop
  endfacet
  facet normal -0 0 1
    outer loop
      vertex -1.53909 4.22862 1.5
      vertex -0.781416 -4.43163 1.5
      vertex -0.781416 4.43163 1.5
    endloop
  endfacet
  facet normal 0 0 1
    outer loop
      vertex -1.53909 4.22862 1.5
      vertex -1.53909 -4.22862 1.5
      vertex -0.781416 -4.43163 1.5
    endloop
  endfacet
  facet normal -0 0 1
    outer loop
      vertex -2.25 3.89711 1.5
      vertex -1.53909 -4.22862 1.5
      vertex -1.53909 4.22862 1.5
    endloop
  endfacet
  facet normal 0 0 1
    outer loop
      vertex -2.25 3.89711 1.5
      vertex -2.25 -3.89711 1.5
      vertex -1.53909 -4.22862 1.5
    endloop
  endfacet
  facet normal -0 0 1
    outer loop
      vertex -2.89254 3.4472 1.5
      vertex -2.25 -3.89711 1.5
      vertex -2.25 3.89711 1.5
    endloop
  endfacet
  facet normal 0 0 1
    outer loop
      vertex -2.89254 3.4472 1.5
      vertex -2.89254 -3.4472 1.5
      vertex -2.25 -3.89711 1.5
    endloop
  endfacet
  facet normal -0 0 1
    outer loop
      vertex -3.4472 2.89254 1.5
      vertex -2.89254 -3.4472 1.5
      vertex -2.89254 3.4472 1.5
    endloop
  endfacet
  facet normal 0 0 1
    outer loop
      vertex -3.4472 2.89254 1.5
      vertex -3.4472 -2.89254 1.5
      vertex -2.89254 -3.4472 1.5
    endloop
  endfacet
  facet normal -0 0 1
    outer loop
      vertex -3.89711 2.25 1.5
      vertex -3.4472 -2.89254 1.5
      vertex -3.4472 2.89254 1.5
    endloop
  endfacet
  facet normal 0 0 1
    outer loop
      vertex -3.89711 2.25 1.5
      vertex -3.89711 -2.25 1.5
      vertex -3.4472 -2.89254 1.5
    endloop
  endfacet
  facet normal -0 0 1
    outer loop
      vertex -4.22862 1.53909 1.5
      vertex -3.89711 -2.25 1.5
      vertex -3.89711 2.25 1.5
    endloop
  endfacet
  facet normal 0 0 1
    outer loop
      vertex -4.22862 1.53909 1.5
      vertex -4.22862 -1.53909 1.5
      vertex -3.89711 -2.25 1.5
    endloop
  endfacet
  facet normal -0 0 1
    outer loop
      vertex -4.43163 0.781416 1.5
      vertex -4.22862 -1.53909 1.5
      vertex -4.22862 1.53909 1.5
    endloop
  endfacet
  facet normal 0 0 1
    outer loop
      vertex -4.43163 0.781416 1.5
      vertex -4.43163 -0.781416 1.5
      vertex -4.22862 -1.53909 1.5
    endloop
  endfacet
  facet normal 0 -0 1
    outer loop
      vertex -4.43163 -0.781416 1.5
      vertex -4.43163 0.781416 1.5
      vertex -4.5 0 1.5
    endloop
  endfacet
  facet normal -0.422619 0.906307 0
    outer loop
      vertex -1.53909 4.22862 -1.5
      vertex -2.25 3.89711 1.5
      vertex -1.53909 4.22862 1.5
    endloop
  endfacet
  facet normal -0.422619 0.906307 0
    outer loop
      vertex -2.25 3.89711 1.5
      vertex -1.53909 4.22862 -1.5
      vertex -2.25 3.89711 -1.5
    endloop
  endfacet
  facet normal -0.087157 0.996195 0
    outer loop
      vertex 0 4.5 -1.5
      vertex -0.781416 4.43163 1.5
      vertex 0 4.5 1.5
    endloop
  endfacet
  facet normal -0.087157 0.996195 0
    outer loop
      vertex -0.781416 4.43163 1.5
      vertex 0 4.5 -1.5
      vertex -0.781416 4.43163 -1.5
    endloop
  endfacet
  facet normal 0.087157 -0.996195 0
    outer loop
      vertex 0 -4.5 -1.5
      vertex 0.781416 -4.43163 1.5
      vertex 0 -4.5 1.5
    endloop
  endfacet
  facet normal 0.087157 -0.996195 0
    outer loop
      vertex 0.781416 -4.43163 1.5
      vertex 0 -4.5 -1.5
      vertex 0.781416 -4.43163 -1.5
    endloop
  endfacet
  facet normal 0.996195 -0.087157 0
    outer loop
      vertex 4.43163 -0.781416 1.5
      vertex 4.5 0 -1.5
      vertex 4.5 0 1.5
    endloop
  endfacet
  facet normal 0.996195 -0.087157 0
    outer loop
      vertex 4.5 0 -1.5
      vertex 4.43163 -0.781416 1.5
      vertex 4.43163 -0.781416 -1.5
    endloop
  endfacet
  facet normal -0.707107 -0.707107 0
    outer loop
      vertex -2.89254 -3.4472 -1.5
      vertex -3.4472 -2.89254 1.5
      vertex -3.4472 -2.89254 -1.5
    endloop
  endfacet
  facet normal -0.707107 -0.707107 0
    outer loop
      vertex -3.4472 -2.89254 1.5
      vertex -2.89254 -3.4472 -1.5
      vertex -2.89254 -3.4472 1.5
    endloop
  endfacet
  facet normal -0.258818 -0.965926 0
    outer loop
      vertex -1.53909 -4.22862 -1.5
      vertex -0.781416 -4.43163 1.5
      vertex -1.53909 -4.22862 1.5
    endloop
  endfacet
  facet normal -0.258818 -0.965926 -0
    outer loop
      vertex -0.781416 -4.43163 1.5
      vertex -1.53909 -4.22862 -1.5
      vertex -0.781416 -4.43163 -1.5
    endloop
  endfacet
  facet normal -0.996195 -0.087157 0
    outer loop
      vertex -4.43163 -0.781416 -1.5
      vertex -4.5 0 1.5
      vertex -4.5 0 -1.5
    endloop
  endfacet
  facet normal -0.996195 -0.087157 0
    outer loop
      vertex -4.5 0 1.5
      vertex -4.43163 -0.781416 -1.5
      vertex -4.43163 -0.781416 1.5
    endloop
  endfacet
  facet normal -0.906308 -0.422618 0
    outer loop
      vertex -3.89711 -2.25 -1.5
      vertex -4.22862 -1.53909 1.5
      vertex -4.22862 -1.53909 -1.5
    endloop
  endfacet
  facet normal -0.906308 -0.422618 0
    outer loop
      vertex -4.22862 -1.53909 1.5
      vertex -3.89711 -2.25 -1.5
      vertex -3.89711 -2.25 1.5
    endloop
  endfacet
  facet normal -0.965926 -0.258818 0
    outer loop
      vertex -4.22862 -1.53909 -1.5
      vertex -4.43163 -0.781416 1.5
      vertex -4.43163 -0.781416 -1.5
    endloop
  endfacet
  facet normal -0.965926 -0.258818 0
    outer loop
      vertex -4.43163 -0.781416 1.5
      vertex -4.22862 -1.53909 -1.5
      vertex -4.22862 -1.53909 1.5
    endloop
  endfacet
  facet normal -0.906308 0.422618 0
    outer loop
      vertex -4.22862 1.53909 -1.5
      vertex -3.89711 2.25 1.5
      vertex -3.89711 2.25 -1.5
    endloop
  endfacet
  facet normal -0.906308 0.422618 0
    outer loop
      vertex -3.89711 2.25 1.5
      vertex -4.22862 1.53909 -1.5
      vertex -4.22862 1.53909 1.5
    endloop
  endfacet
  facet normal 0.258818 -0.965926 0
    outer loop
      vertex 0.781416 -4.43163 -1.5
      vertex 1.53909 -4.22862 1.5
      vertex 0.781416 -4.43163 1.5
    endloop
  endfacet
  facet normal 0.258818 -0.965926 0
    outer loop
      vertex 1.53909 -4.22862 1.5
      vertex 0.781416 -4.43163 -1.5
      vertex 1.53909 -4.22862 -1.5
    endloop
  endfacet
  facet normal 0.422619 -0.906307 0
    outer loop
      vertex 1.53909 -4.22862 -1.5
      vertex 2.25 -3.89711 1.5
      vertex 1.53909 -4.22862 1.5
    endloop
  endfacet
  facet normal 0.422619 -0.906307 0
    outer loop
      vertex 2.25 -3.89711 1.5
      vertex 1.53909 -4.22862 -1.5
      vertex 2.25 -3.89711 -1.5
    endloop
  endfacet
  facet normal 0.707107 -0.707107 0
    outer loop
      vertex 2.89254 -3.4472 1.5
      vertex 3.4472 -2.89254 -1.5
      vertex 3.4472 -2.89254 1.5
    endloop
  endfacet
  facet normal 0.707107 -0.707107 0
    outer loop
      vertex 3.4472 -2.89254 -1.5
      vertex 2.89254 -3.4472 1.5
      vertex 2.89254 -3.4472 -1.5
    endloop
  endfacet
  facet normal 0.573576 -0.819152 0
    outer loop
      vertex 2.25 -3.89711 -1.5
      vertex 2.89254 -3.4472 1.5
      vertex 2.25 -3.89711 1.5
    endloop
  endfacet
  facet normal 0.573576 -0.819152 0
    outer loop
      vertex 2.89254 -3.4472 1.5
      vertex 2.25 -3.89711 -1.5
      vertex 2.89254 -3.4472 -1.5
    endloop
  endfacet
  facet normal 0.906307 -0.422619 0
    outer loop
      vertex 3.89711 -2.25 1.5
      vertex 4.22862 -1.53909 -1.5
      vertex 4.22862 -1.53909 1.5
    endloop
  endfacet
  facet normal 0.906307 -0.422619 0
    outer loop
      vertex 4.22862 -1.53909 -1.5
      vertex 3.89711 -2.25 1.5
      vertex 3.89711 -2.25 -1.5
    endloop
  endfacet
  facet normal 0.819152 -0.573576 0
    outer loop
      vertex 3.4472 -2.89254 1.5
      vertex 3.89711 -2.25 -1.5
      vertex 3.89711 -2.25 1.5
    endloop
  endfacet
  facet normal 0.819152 -0.573576 0
    outer loop
      vertex 3.89711 -2.25 -1.5
      vertex 3.4472 -2.89254 1.5
      vertex 3.4472 -2.89254 -1.5
    endloop
  endfacet
  facet normal 0.965926 -0.258818 0
    outer loop
      vertex 4.22862 -1.53909 1.5
      vertex 4.43163 -0.781416 -1.5
      vertex 4.43163 -0.781416 1.5
    endloop
  endfacet
  facet normal 0.965926 -0.258818 0
    outer loop
      vertex 4.43163 -0.781416 -1.5
      vertex 4.22862 -1.53909 1.5
      vertex 4.22862 -1.53909 -1.5
    endloop
  endfacet
  facet normal -0.573576 -0.819152 0
    outer loop
      vertex -2.89254 -3.4472 -1.5
      vertex -2.25 -3.89711 1.5
      vertex -2.89254 -3.4472 1.5
    endloop
  endfacet
  facet normal -0.573576 -0.819152 -0
    outer loop
      vertex -2.25 -3.89711 1.5
      vertex -2.89254 -3.4472 -1.5
      vertex -2.25 -3.89711 -1.5
    endloop
  endfacet
  facet normal -0.422618 -0.906308 0
    outer loop
      vertex -2.25 -3.89711 -1.5
      vertex -1.53909 -4.22862 1.5
      vertex -2.25 -3.89711 1.5
    endloop
  endfacet
  facet normal -0.422618 -0.906308 -0
    outer loop
      vertex -1.53909 -4.22862 1.5
      vertex -2.25 -3.89711 -1.5
      vertex -1.53909 -4.22862 -1.5
    endloop
  endfacet
  facet normal -0.087157 -0.996195 0
    outer loop
      vertex -0.781416 -4.43163 -1.5
      vertex 0 -4.5 1.5
      vertex -0.781416 -4.43163 1.5
    endloop
  endfacet
  facet normal -0.087157 -0.996195 -0
    outer loop
      vertex 0 -4.5 1.5
      vertex -0.781416 -4.43163 -1.5
      vertex 0 -4.5 -1.5
    endloop
  endfacet
endsolid OpenSCAD_Model
